<?xml version="1.0" encoding="utf-8"?>
<!-- created with cmmn-js / http://bpmn.io -->
<!DOCTYPE svg PUBLIC "-//W3C//DTD SVG 1.1//EN" "http://www.w3.org/Graphics/SVG/1.1/DTD/svg11.dtd">
<svg xmlns="http://www.w3.org/2000/svg" xmlns:xlink="http://www.w3.org/1999/xlink" width="613" height="423" viewBox="230 271 613 423" version="1.1"><defs><marker id="association-start" viewBox="0 0 20 20" refX="1" refY="10" markerWidth="10" markerHeight="10" orient="auto"><path d="M 11 5 L 1 10 L 11 15" style="fill: none; stroke-width: 1.5px; stroke-linecap: round; stroke-dasharray: 10000, 1; stroke: black;"></path></marker><marker id="association-end" viewBox="0 0 20 20" refX="12" refY="10" markerWidth="10" markerHeight="10" orient="auto"><path d="M 1 5 L 11 10 L 1 15" style="fill: none; stroke-width: 1.5px; stroke-linecap: round; stroke-dasharray: 10000, 1; stroke: black;"></path></marker></defs><g class="djs-group"><g class="djs-element djs-shape" data-element-id="CasePlanModel_1" transform="translate(236, 295)" style="display: block;"><g class="djs-visual"><rect x="0" y="0" width="591" height="393" rx="0" ry="0" style="stroke: black; stroke-width: 2px; fill: white; fill-opacity: 0.95;"/><polygon points="10,0 20,-18 123.36782836914062,-18 133.36782836914062,0" style="fill: white; stroke: black; stroke-width: 2px; fill-opacity: 0.95; pointer-events: all;"/><text style="font-family: Arial,sans-serif; font-size: 12px;" class="djs-label" transform="translate(25, -19)"><tspan x="0" y="13.007745742797852">HA-Bearbeitung</tspan></text></g><rect x="0" y="0" width="591" height="393" style="fill: none; stroke-opacity: 0; stroke: white; stroke-width: 15px;" class="djs-hit"/><rect x="-6" y="-24" width="603" height="423" style="fill: none;" class="djs-outline"/></g><g class="djs-children"><g class="djs-group"><g class="djs-element djs-shape hover" data-element-id="PlanItem_1jemsop" transform="translate(256, 317)" style="display: block;"><g class="djs-visual"><polygon points="20,322 0,302 0,20 20,0 341,0 361,20 361,302 341,322" style="fill-opacity: 0.95; fill: white; stroke: black; stroke-width: 2px;"/><text style="font-family: Arial,sans-serif; font-size: 12px;" class="djs-label" transform="translate(20)"><tspan x="5" y="18.73145580291748">Aufgabenbearbeitung</tspan></text><rect x="0" y="0" width="14" height="14" rx="0" ry="0" style="stroke: black; stroke-width: 1px; fill: white;" transform="translate(173.5, 305)"/><path d="m173.5,305 m 2,7 l 10,0" style="fill: none; stroke-width: 2px; stroke: black;"/><path d="m193.5,305 m 3,0 l 0,14 m 6,-14 l 0,14 m -10,-10 l 14,0 m -14,6 l 14,0" style="fill: none; stroke-width: 2px; stroke: black;"/></g><rect x="0" y="0" width="361" height="322" style="fill: none; stroke-opacity: 0; stroke: white; stroke-width: 15px;" class="djs-hit"/><rect x="-6" y="-6" width="373" height="334" style="fill: none;" class="djs-outline"/></g><g class="djs-children"><g class="djs-group"><g class="djs-element djs-shape hover" data-element-id="PlanItem_1" transform="translate(277, 374)" style="display: block;"><g class="djs-visual"><rect x="0" y="0" width="100" height="80" rx="10" ry="10" style="stroke: black; stroke-width: 2px; fill: white;"/><text style="font-family: Arial,sans-serif; font-size: 12px;" class="djs-label"><tspan x="26.936723709106445" y="36.7327024936676">Aufgabe </tspan><tspan x="20.786516189575195" y="49.80189251899719">bearbeiten </tspan></text><path d="m 15,12 c 0.909,-0.845 1.594,-2.049 1.594,-3.385 0,-2.554 -1.805,-4.62199999 -4.357,-4.62199999 -2.55199998,0 -4.28799998,2.06799999 -4.28799998,4.62199999 0,1.348 0.974,2.562 1.89599998,3.405 -0.52899998,0.187 -5.669,2.097 -5.794,4.7560005 v 6.718 h 17 v -6.718 c 0,-2.2980005 -5.5279996,-4.5950005 -6.0509996,-4.7760005 zm -8,6 l 0,5.5 m 11,0 l 0,-5" style="fill: none; stroke-width: 0.5px; stroke: black;"/><path d="m 15,12 m 2.162,1.009 c 0,2.4470005 -2.158,4.4310005 -4.821,4.4310005 -2.66499998,0 -4.822,-1.981 -4.822,-4.4310005" style="fill: none; stroke-width: 0.5px; stroke: black;"/><path d="m 15,12 m -6.9,-3.80 c 0,0 2.25099998,-2.358 4.27399998,-1.177 2.024,1.181 4.221,1.537 4.124,0.965 -0.098,-0.57 -0.117,-3.79099999 -4.191,-4.13599999 -3.57499998,0.001 -4.20799998,3.36699999 -4.20699998,4.34799999 z" style="fill: black; stroke-width: 0.5px; stroke: black;"/></g><rect x="0" y="0" width="100" height="80" style="fill: none; stroke-opacity: 0; stroke: white; stroke-width: 15px;" class="djs-hit"/><rect x="-6" y="-6" width="112" height="92" style="fill: none;" class="djs-outline"/></g></g><g class="djs-group"><g class="djs-element djs-shape" data-element-id="PlanItem_0vcqv9t" transform="translate(276, 539)" style="display: block;"><g class="djs-visual"><rect x="0" y="0" width="100" height="80" rx="10" ry="10" style="stroke: black; stroke-width: 2px; fill: white;"/><text style="font-family: Arial,sans-serif; font-size: 12px;" class="djs-label"><tspan x="37.699585914611816" y="36.7327024936676">Stoff </tspan><tspan x="12.32998275756836" y="49.80189251899719">recherchieren </tspan></text><path d="m33, 63 l 14,7 l -14,7 l 0,-14 z" style="fill: none; stroke-width: 1px; stroke: black;"/><path d="m53,63 m 3,0 l 0,14 m 6,-14 l 0,14 m -10,-10 l 14,0 m -14,6 l 14,0" style="fill: none; stroke-width: 2px; stroke: black;"/><path d="m 15,12 c 0.909,-0.845 1.594,-2.049 1.594,-3.385 0,-2.554 -1.805,-4.62199999 -4.357,-4.62199999 -2.55199998,0 -4.28799998,2.06799999 -4.28799998,4.62199999 0,1.348 0.974,2.562 1.89599998,3.405 -0.52899998,0.187 -5.669,2.097 -5.794,4.7560005 v 6.718 h 17 v -6.718 c 0,-2.2980005 -5.5279996,-4.5950005 -6.0509996,-4.7760005 zm -8,6 l 0,5.5 m 11,0 l 0,-5" style="fill: none; stroke-width: 0.5px; stroke: black;"/><path d="m 15,12 m 2.162,1.009 c 0,2.4470005 -2.158,4.4310005 -4.821,4.4310005 -2.66499998,0 -4.822,-1.981 -4.822,-4.4310005" style="fill: none; stroke-width: 0.5px; stroke: black;"/><path d="m 15,12 m -6.9,-3.80 c 0,0 2.25099998,-2.358 4.27399998,-1.177 2.024,1.181 4.221,1.537 4.124,0.965 -0.098,-0.57 -0.117,-3.79099999 -4.191,-4.13599999 -3.57499998,0.001 -4.20799998,3.36699999 -4.20699998,4.34799999 z" style="fill: black; stroke-width: 0.5px; stroke: black;"/></g><rect x="0" y="0" width="100" height="80" style="fill: none; stroke-opacity: 0; stroke: white; stroke-width: 15px;" class="djs-hit"/><rect x="-6" y="-6" width="112" height="92" style="fill: none;" class="djs-outline"/></g></g><g class="djs-group"><g class="djs-element djs-shape" data-element-id="PlanItem_051zzmy" transform="translate(451, 337)" style="display: block;"><g class="djs-visual"><rect x="0" y="0" width="100" height="80" rx="10" ry="10" style="stroke: black; stroke-width: 2px; fill: white;"/><text style="font-family: Arial,sans-serif; font-size: 12px;" class="djs-label"><tspan x="29.627439498901367" y="36.7327024936676">Lösung </tspan><tspan x="24.246007919311523" y="49.80189251899719">freigeben </tspan></text><path d="m 5,5 l15,0 l6,6 l-6,6 l-15,0 l6,-6 l-6,-6" style="fill: white; stroke-width: 1.25px; stroke: black;"/></g><rect x="0" y="0" width="100" height="80" style="fill: none; stroke-opacity: 0; stroke: white; stroke-width: 15px;" class="djs-hit"/><rect x="-6" y="-6" width="112" height="92" style="fill: none;" class="djs-outline"/></g></g><g class="djs-group"><g class="djs-element djs-shape" data-element-id="PlanItem_0fspyxv" transform="translate(451, 439)" style="display: block;"><g class="djs-visual"><rect x="0" y="0" width="100" height="80" rx="10" ry="10" style="stroke: black; stroke-width: 2px; fill: white;"/><text style="font-family: Arial,sans-serif; font-size: 12px;" class="djs-label"><tspan x="29.627439498901367" y="36.7327024936676">Lösung </tspan><tspan x="20.402128219604492" y="49.80189251899719">überprüfen </tspan></text><path d="m 15,12 c 0.909,-0.845 1.594,-2.049 1.594,-3.385 0,-2.554 -1.805,-4.62199999 -4.357,-4.62199999 -2.55199998,0 -4.28799998,2.06799999 -4.28799998,4.62199999 0,1.348 0.974,2.562 1.89599998,3.405 -0.52899998,0.187 -5.669,2.097 -5.794,4.7560005 v 6.718 h 17 v -6.718 c 0,-2.2980005 -5.5279996,-4.5950005 -6.0509996,-4.7760005 zm -8,6 l 0,5.5 m 11,0 l 0,-5" style="fill: none; stroke-width: 0.5px; stroke: black;"/><path d="m 15,12 m 2.162,1.009 c 0,2.4470005 -2.158,4.4310005 -4.821,4.4310005 -2.66499998,0 -4.822,-1.981 -4.822,-4.4310005" style="fill: none; stroke-width: 0.5px; stroke: black;"/><path d="m 15,12 m -6.9,-3.80 c 0,0 2.25099998,-2.358 4.27399998,-1.177 2.024,1.181 4.221,1.537 4.124,0.965 -0.098,-0.57 -0.117,-3.79099999 -4.191,-4.13599999 -3.57499998,0.001 -4.20799998,3.36699999 -4.20699998,4.34799999 z" style="fill: black; stroke-width: 0.5px; stroke: black;"/></g><rect x="0" y="0" width="100" height="80" style="fill: none; stroke-opacity: 0; stroke: white; stroke-width: 15px;" class="djs-hit"/><rect x="-6" y="-6" width="112" height="92" style="fill: none;" class="djs-outline"/></g></g><g class="djs-group"><g class="djs-element djs-shape" data-element-id="TextAnnotation_0ae0eez" transform="translate(335, 469)" style="display: block;"><g class="djs-visual"><rect x="0" y="0" width="85" height="57" rx="0" ry="0" style="stroke: none; stroke-width: 2px; fill: none;"/><path d="m 0, 0 m 10,0 l -10,0 l 0,57 l 10,0" style="fill: none; stroke-width: 2px; stroke: black;"/><text style="font-family: Arial,sans-serif; font-size: 12px;" class="djs-label"><tspan x="5" y="18.20140814781189">Kommilitone </tspan><tspan x="5" y="31.93286395072937">hat Lösung </tspan><tspan x="5" y="45.66431975364685">gefunden </tspan></text></g><rect x="0" y="0" width="85" height="57" style="fill: none; stroke-opacity: 0; stroke: white; stroke-width: 15px;" class="djs-hit"/><rect x="-6" y="-6" width="97" height="69" style="fill: none;" class="djs-outline"/></g></g><g class="djs-group"><g class="djs-element djs-shape" data-element-id="EntryCriterion_0dgcxl7" transform="translate(367, 418)" style="display: block;"><g class="djs-visual"><polygon points="10,0 20,14 10,28 0,14" style="stroke: black; stroke-width: 2px; fill: black;"/></g><rect x="0" y="0" width="20" height="28" style="fill: none; stroke-opacity: 0; stroke: white; stroke-width: 15px;" class="djs-hit"/><rect x="-6" y="-6" width="32" height="40" style="fill: none;" class="djs-outline"/></g></g><g class="djs-group"><g class="djs-element djs-shape" data-element-id="EntryCriterion_0s42ysh" transform="translate(441, 364)" style="display: block;"><g class="djs-visual"><polygon points="10,0 20,14 10,28 0,14" style="stroke: black; stroke-width: 2px; fill: white;"/></g><rect x="0" y="0" width="20" height="28" style="fill: none; stroke-opacity: 0; stroke: white; stroke-width: 15px;" class="djs-hit"/><rect x="-6" y="-6" width="32" height="40" style="fill: none;" class="djs-outline"/></g></g><g class="djs-group"><g class="djs-element djs-shape" data-element-id="EntryCriterion_0bmq1eh" transform="translate(441, 467)" style="display: block;"><g class="djs-visual"><polygon points="10,0 20,14 10,28 0,14" style="stroke: black; stroke-width: 2px; fill: white;"/></g><rect x="0" y="0" width="20" height="28" style="fill: none; stroke-opacity: 0; stroke: white; stroke-width: 15px;" class="djs-hit"/><rect x="-6" y="-6" width="32" height="40" style="fill: none;" class="djs-outline"/></g></g></g></g><g class="djs-group"><g class="djs-element djs-shape" data-element-id="TextAnnotation_1k3vkv6" transform="translate(623, 490)" style="display: block;"><g class="djs-visual"><rect x="0" y="0" width="113" height="46" rx="0" ry="0" style="stroke: none; stroke-width: 2px; fill: none;"/><path d="m 0, 0 m 10,0 l -10,0 l 0,46 l 10,0" style="fill: none; stroke-width: 2px; stroke: black;"/><text style="font-family: Arial,sans-serif; font-size: 12px;" class="djs-label"><tspan x="5" y="13.198107481002808">Fehler in der </tspan><tspan x="5" y="26.267297506332397">Aufgabenstellung </tspan><tspan x="5" y="39.33648753166199">entdeckt </tspan></text></g><rect x="0" y="0" width="113" height="46" style="fill: none; stroke-opacity: 0; stroke: white; stroke-width: 15px;" class="djs-hit"/><rect x="-6" y="-6" width="125" height="58" style="fill: none;" class="djs-outline"/></g></g><g class="djs-group"><g class="djs-element djs-shape" data-element-id="PlanItem_1a9yx11" transform="translate(686.975, 358)" style="display: block;"><g class="djs-visual"><rect x="0" y="0" width="100" height="40" rx="24" ry="24" style="stroke: black; stroke-width: 2px; fill: white;"/><text style="font-family: Arial,sans-serif; font-size: 12px;" class="djs-label"><tspan x="26.936723709106445" y="16.732702493667603">Aufgabe </tspan><tspan x="22.70845603942871" y="29.801892518997192">bearbeitet </tspan></text></g><rect x="0" y="0" width="100" height="40" style="fill: none; stroke-opacity: 0; stroke: white; stroke-width: 15px;" class="djs-hit"/><rect x="-6" y="-6" width="112" height="52" style="fill: none;" class="djs-outline"/></g></g><g class="djs-group"><g class="djs-element djs-shape" data-element-id="TextAnnotation_0pwqmre" transform="translate(659, 615)" style="display: block;"><g class="djs-visual"><rect x="0" y="0" width="137" height="53" rx="0" ry="0" style="stroke: none; stroke-width: 2px; fill: none;"/><path d="m 0, 0 m 10,0 l -10,0 l 0,53 l 10,0" style="fill: none; stroke-width: 2px; stroke: black;"/><text style="font-family: Arial,sans-serif; font-size: 12px;" class="djs-label"><tspan x="5" y="16.698107481002808">Keine Punkte mehr für</tspan><tspan x="5" y="29.767297506332397">die Klausurzulassung </tspan><tspan x="5" y="42.83648753166199">notwendig </tspan></text></g><rect x="0" y="0" width="137" height="53" style="fill: none; stroke-opacity: 0; stroke: white; stroke-width: 15px;" class="djs-hit"/><rect x="-6" y="-6" width="149" height="65" style="fill: none;" class="djs-outline"/></g></g><g class="djs-group"><g class="djs-element djs-shape" data-element-id="PlanItem_0z3bv59" transform="translate(687, 404)" style="display: block;"><g class="djs-visual"><rect x="0" y="0" width="100" height="80" rx="10" ry="10" style="stroke: black; stroke-width: 2px; fill: white;"/><text style="font-family: Arial,sans-serif; font-size: 12px;" class="djs-label"><tspan x="35.7776460647583" y="30.198107481002808">Beim </tspan><tspan x="15.020698547363281" y="43.2672975063324">Übungsleiter </tspan><tspan x="19.248964309692383" y="56.33648753166199">nachfragen </tspan></text><path d="m 15,12 c 0.909,-0.845 1.594,-2.049 1.594,-3.385 0,-2.554 -1.805,-4.62199999 -4.357,-4.62199999 -2.55199998,0 -4.28799998,2.06799999 -4.28799998,4.62199999 0,1.348 0.974,2.562 1.89599998,3.405 -0.52899998,0.187 -5.669,2.097 -5.794,4.7560005 v 6.718 h 17 v -6.718 c 0,-2.2980005 -5.5279996,-4.5950005 -6.0509996,-4.7760005 zm -8,6 l 0,5.5 m 11,0 l 0,-5" style="fill: none; stroke-width: 0.5px; stroke: black;"/><path d="m 15,12 m 2.162,1.009 c 0,2.4470005 -2.158,4.4310005 -4.821,4.4310005 -2.66499998,0 -4.822,-1.981 -4.822,-4.4310005" style="fill: none; stroke-width: 0.5px; stroke: black;"/><path d="m 15,12 m -6.9,-3.80 c 0,0 2.25099998,-2.358 4.27399998,-1.177 2.024,1.181 4.221,1.537 4.124,0.965 -0.098,-0.57 -0.117,-3.79099999 -4.191,-4.13599999 -3.57499998,0.001 -4.20799998,3.36699999 -4.20699998,4.34799999 z" style="fill: black; stroke-width: 0.5px; stroke: black;"/></g><rect x="0" y="0" width="100" height="80" style="fill: none; stroke-opacity: 0; stroke: white; stroke-width: 15px;" class="djs-hit"/><rect x="-6" y="-6" width="112" height="92" style="fill: none;" class="djs-outline"/></g></g><g class="djs-group"><g class="djs-element djs-shape" data-element-id="PlanItem_03i8ybu" transform="translate(737, 495)" style="display: block;"><g class="djs-visual"><circle cx="18" cy="18" r="18" style="stroke: black; stroke-width: 2px; fill: white;"/><circle cx="18" cy="18" r="14" style="stroke: black; stroke-width: 2px; fill: white;"/><path d="m 20,15 c 0.909,-0.845 1.594,-2.049 1.594,-3.385 0,-2.554 -1.805,-4.62199999 -4.357,-4.62199999 -2.55199998,0 -4.28799998,2.06799999 -4.28799998,4.62199999 0,1.348 0.974,2.562 1.89599998,3.405 -0.52899998,0.187 -5.669,2.097 -5.794,4.7560005 v 6.718 h 17 v -6.718 c 0,-2.2980005 -5.5279996,-4.5950005 -6.0509996,-4.7760005 zm -8,6 l 0,5.5 m 11,0 l 0,-5" style="fill: none; stroke-width: 0.5px; stroke: black;"/><path d="m 20,15 m 2.162,1.009 c 0,2.4470005 -2.158,4.4310005 -4.821,4.4310005 -2.66499998,0 -4.822,-1.981 -4.822,-4.4310005" style="fill: none; stroke-width: 0.5px; stroke: black;"/><path d="m 20,15 m -6.9,-3.80 c 0,0 2.25099998,-2.358 4.27399998,-1.177 2.024,1.181 4.221,1.537 4.124,0.965 -0.098,-0.57 -0.117,-3.79099999 -4.191,-4.13599999 -3.57499998,0.001 -4.20799998,3.36699999 -4.20699998,4.34799999 z" style="fill: black; stroke-width: 0.5px; stroke: black;"/></g><rect x="0" y="0" width="36" height="36" style="fill: none; stroke-opacity: 0; stroke: white; stroke-width: 15px;" class="djs-hit"/><rect x="-6" y="-6" width="48" height="48" style="fill: none;" class="djs-outline"/></g></g><g class="djs-group"><g class="djs-element djs-shape" data-element-id="PlanItem_17e93iv_label" transform="translate(710, 530.955)" style="display: block;"><g class="djs-visual"><text style="font-family: Arial,sans-serif; font-size: 11px;" class="djs-label" transform="translate(-2.4291954040527344,0)"><tspan x="12.776264190673828" y="12.416484832763672">Übungsleiter </tspan><tspan x="29.331578254699707" y="24.832969665527344">erklärt </tspan><tspan x="2.4291954040527344" y="37.249454498291016">Hausaufgabe für </tspan><tspan x="24.897119522094727" y="49.66593933105469">ungültig </tspan></text></g><rect x="0" y="0" width="89" height="50" style="fill: none; stroke-opacity: 0; stroke: white; stroke-width: 15px;" class="djs-hit"/><rect x="-6" y="-6" width="101" height="62" style="fill: none;" class="djs-outline"/></g></g><g class="djs-group"><g class="djs-element djs-shape" data-element-id="EntryCriterion_1vm84ik" transform="translate(676.975, 364.371)" style="display: block;"><g class="djs-visual"><polygon points="10,0 20,14 10,28 0,14" style="stroke: black; stroke-width: 2px; fill: white;"/></g><rect x="0" y="0" width="20" height="28" style="fill: none; stroke-opacity: 0; stroke: white; stroke-width: 15px;" class="djs-hit"/><rect x="-6" y="-6" width="32" height="40" style="fill: none;" class="djs-outline"/></g></g><g class="djs-group"><g class="djs-element djs-shape" data-element-id="PlanItemOnPart_1pm8xfy_di_label" transform="translate(397, 416)" style="display: block;"><g class="djs-visual"><text style="font-family: Arial,sans-serif; font-size: 11px;" class="djs-label" transform="translate(-33.468360900878906,0)"><tspan x="33.46836185455322" y="12.300414085388184">[exit]</tspan></text></g><rect x="0" y="0" width="24" height="13" style="fill: none; stroke-opacity: 0; stroke: white; stroke-width: 15px;" class="djs-hit"/><rect x="-6" y="-6" width="36" height="25" style="fill: none;" class="djs-outline"/></g></g><g class="djs-group"><g class="djs-element djs-shape" data-element-id="PlanItemOnPart_0soh445_di_label" transform="translate(386, 349)" style="display: block;"><g class="djs-visual"><text style="font-family: Arial,sans-serif; font-size: 11px;" class="djs-label" transform="translate(-19.630395889282227,0)"><tspan x="45" y="12.300414085388184"/><tspan x="19.630395889282227" y="24.600828170776367"> [complete]</tspan></text></g><rect x="0" y="0" width="51" height="13" style="fill: none; stroke-opacity: 0; stroke: white; stroke-width: 15px;" class="djs-hit"/><rect x="-6" y="-6" width="63" height="25" style="fill: none;" class="djs-outline"/></g></g><g class="djs-group"><g class="djs-element djs-shape" data-element-id="PlanItemOnPart_0c6tngj_di_label" transform="translate(554, 379)" style="display: block;"><g class="djs-visual"><text style="font-family: Arial,sans-serif; font-size: 11px;" class="djs-label" transform="translate(-19.630395889282227,0)"><tspan x="19.630395889282227" y="12.300414085388184">[complete]</tspan></text></g><rect x="0" y="0" width="51" height="13" style="fill: none; stroke-opacity: 0; stroke: white; stroke-width: 15px;" class="djs-hit"/><rect x="-6" y="-6" width="63" height="25" style="fill: none;" class="djs-outline"/></g></g><g class="djs-group"><g class="djs-element djs-shape" data-element-id="PlanItemOnPart_0vh1tw0_di_label" transform="translate(635, 368)" style="display: block;"><g class="djs-visual"><text style="font-family: Arial,sans-serif; font-size: 11px;" class="djs-label" transform="translate(-33.468360900878906,0)"><tspan x="33.46836185455322" y="12.300414085388184">[exit]</tspan></text></g><rect x="0" y="0" width="24" height="13" style="fill: none; stroke-opacity: 0; stroke: white; stroke-width: 15px;" class="djs-hit"/><rect x="-6" y="-6" width="36" height="25" style="fill: none;" class="djs-outline"/></g></g><g class="djs-group"><g class="djs-element djs-shape" data-element-id="PlanItemOnPart_1fxv0ig_di_label" transform="translate(634, 427)" style="display: block;"><g class="djs-visual"><text style="font-family: Arial,sans-serif; font-size: 11px;" class="djs-label" transform="translate(-33.468360900878906,0)"><tspan x="33.46836185455322" y="12.300414085388184">[exit]</tspan></text></g><rect x="0" y="0" width="24" height="13" style="fill: none; stroke-opacity: 0; stroke: white; stroke-width: 15px;" class="djs-hit"/><rect x="-6" y="-6" width="36" height="25" style="fill: none;" class="djs-outline"/></g></g><g class="djs-group"><g class="djs-element djs-shape" data-element-id="EntryCriterion_01vzqfx" transform="translate(676.518, 431.787)" style="display: block;"><g class="djs-visual"><polygon points="10,0 20,14 10,28 0,14" style="stroke: black; stroke-width: 2px; fill: white;"/></g><rect x="0" y="0" width="20" height="28" style="fill: none; stroke-opacity: 0; stroke: white; stroke-width: 15px;" class="djs-hit"/><rect x="-6" y="-6" width="32" height="40" style="fill: none;" class="djs-outline"/></g></g><g class="djs-group"><g class="djs-element djs-shape" data-element-id="ExitCriterion_1mc5rxn" transform="translate(607, 364)" style="display: block;"><g class="djs-visual"><polygon points="10,0 20,14 10,28 0,14" style="stroke: black; stroke-width: 2px; fill: black;"/></g><rect x="0" y="0" width="20" height="28" style="fill: none; stroke-opacity: 0; stroke: white; stroke-width: 15px;" class="djs-hit"/><rect x="-6" y="-6" width="32" height="40" style="fill: none;" class="djs-outline"/></g></g><g class="djs-group"><g class="djs-element djs-shape" data-element-id="EntryCriterion_04tus8x" transform="translate(607, 433)" style="display: block;"><g class="djs-visual"><polygon points="10,0 20,14 10,28 0,14" style="stroke: black; stroke-width: 2px; fill: black;"/></g><rect x="0" y="0" width="20" height="28" style="fill: none; stroke-opacity: 0; stroke: white; stroke-width: 15px;" class="djs-hit"/><rect x="-6" y="-6" width="32" height="40" style="fill: none;" class="djs-outline"/></g></g><g class="djs-group"><g class="djs-element djs-shape" data-element-id="ExitCriterion_1fv9brf" transform="translate(817, 568.955)" style="display: block;"><g class="djs-visual"><polygon points="10,0 20,14 10,28 0,14" style="stroke: black; stroke-width: 2px; fill: black;"/></g><rect x="0" y="0" width="20" height="28" style="fill: none; stroke-opacity: 0; stroke: white; stroke-width: 15px;" class="djs-hit"/><rect x="-6" y="-6" width="32" height="40" style="fill: none;" class="djs-outline"/></g></g><g class="djs-group"><g class="djs-element djs-shape" data-element-id="ExitCriterion_11f2ldc" transform="translate(817, 499)" style="display: block;"><g class="djs-visual"><polygon points="10,0 20,14 10,28 0,14" style="stroke: black; stroke-width: 2px; fill: black;"/></g><rect x="0" y="0" width="20" height="28" style="fill: none; stroke-opacity: 0; stroke: white; stroke-width: 15px;" class="djs-hit"/><rect x="-6" y="-6" width="32" height="40" style="fill: none;" class="djs-outline"/></g></g><g class="djs-group"><g class="djs-element djs-connection" data-element-id="PlanItemOnPart_0soh445_di" style="display: block;"><g class="djs-visual"><path d="m  377,403L409,403 L409,378 L441,378 " style="fill: none; stroke-width: 1.5px; stroke: black; stroke-dasharray: 10, 5, 2, 5, 2, 5;"/></g><polyline points="377,403 409,403 409,378 441,378 " style="fill: none; stroke-opacity: 0; stroke: white; stroke-width: 15px;" class="djs-hit"/><rect x="371" y="372" width="76" height="37" style="fill: none;" class="djs-outline"/></g></g><g class="djs-group"><g class="djs-element djs-connection" data-element-id="PlanItemOnPart_0c6tngj_di" style="display: block;"><g class="djs-visual"><path d="m  551,377L607,378 " style="fill: none; stroke-width: 1.5px; stroke: black; stroke-dasharray: 10, 5, 2, 5, 2, 5;"/></g><polyline points="551,377 607,378 " style="fill: none; stroke-opacity: 0; stroke: white; stroke-width: 15px;" class="djs-hit"/><rect x="545" y="371" width="68" height="13" style="fill: none;" class="djs-outline"/></g></g><g class="djs-group"><g class="djs-element djs-connection" data-element-id="PlanItemOnPart_1pm8xfy_di" style="display: block;"><g class="djs-visual"><path d="m  387,432L422,432 L422,481 L441,481 " style="fill: none; stroke-width: 1.5px; stroke: black; stroke-dasharray: 10, 5, 2, 5, 2, 5;"/></g><polyline points="387,432 422,432 422,481 441,481 " style="fill: none; stroke-opacity: 0; stroke: white; stroke-width: 15px;" class="djs-hit"/><rect x="381" y="426" width="66" height="61" style="fill: none;" class="djs-outline"/></g></g><g class="djs-group"><g class="djs-element djs-connection" data-element-id="PlanItemOnPart_0vh1tw0_di" style="display: block;"><g class="djs-visual"><path d="m  627,378L677,378 " style="fill: none; stroke-width: 1.5px; stroke: black; stroke-dasharray: 10, 5, 2, 5, 2, 5;"/></g><polyline points="627,378 677,378 " style="fill: none; stroke-opacity: 0; stroke: white; stroke-width: 15px;" class="djs-hit"/><rect x="621" y="372" width="62" height="12" style="fill: none;" class="djs-outline"/></g></g><g class="djs-group"><g class="djs-element djs-connection" data-element-id="PlanItemOnPart_1fxv0ig_di" style="display: block;"><g class="djs-visual"><path d="m  627,447L677,446 " style="fill: none; stroke-width: 1.5px; stroke: black; stroke-dasharray: 10, 5, 2, 5, 2, 5;"/></g><polyline points="627,447 677,446 " style="fill: none; stroke-opacity: 0; stroke: white; stroke-width: 15px;" class="djs-hit"/><rect x="621" y="440" width="62" height="13" style="fill: none;" class="djs-outline"/></g></g><g class="djs-group"><g class="djs-element djs-connection" data-element-id="PlanItemOnPart_080dfyg_di" style="display: block;"><g class="djs-visual"><path d="m  773,513L817,513 " style="fill: none; stroke-width: 1.5px; stroke: black; stroke-dasharray: 10, 5, 2, 5, 2, 5;"/></g><polyline points="773,513 817,513 " style="fill: none; stroke-opacity: 0; stroke: white; stroke-width: 15px;" class="djs-hit"/><rect x="767" y="507" width="56" height="12" style="fill: none;" class="djs-outline"/></g></g><g class="djs-group"><g class="djs-element djs-shape" data-element-id="PlanItemOnPart_080dfyg_di_label" transform="translate(774, 496.5)" style="display: block;"><g class="djs-visual"><text style="font-family: Arial,sans-serif; font-size: 11px;" class="djs-label" transform="translate(-27.853425979614258,0)"><tspan x="27.853425979614258" y="12.416484832763672">[occur]</tspan></text></g><rect x="0" y="0" width="35" height="13" style="fill: none; stroke-opacity: 0; stroke: white; stroke-width: 15px;" class="djs-hit"/><rect x="-6" y="-6" width="47" height="25" style="fill: none;" class="djs-outline"/></g></g></g></g><g class="djs-group"><g class="djs-element djs-connection" data-element-id="Association_1ddh81y_di" style="display: block;"><g class="djs-visual"><polyline points="377,446 378,469 " style="fill: none; stroke: black; stroke-width: 2px; stroke-dasharray: 0.5, 5; stroke-linecap: round; stroke-linejoin: round;"/></g><polyline points="377,446 378,469 " style="fill: none; stroke-opacity: 0; stroke: white; stroke-width: 15px;" class="djs-hit"/><rect x="371" y="440" width="13" height="35" style="fill: none;" class="djs-outline"/></g></g><g class="djs-group"><g class="djs-element djs-connection" data-element-id="Association_1k48ocl_di" style="display: block;"><g class="djs-visual"><polyline points="627,457 658,490 " style="fill: none; stroke: black; stroke-width: 2px; stroke-dasharray: 0.5, 5; stroke-linecap: round; stroke-linejoin: round;"/></g><polyline points="627,457 658,490 " style="fill: none; stroke-opacity: 0; stroke: white; stroke-width: 15px;" class="djs-hit"/><rect x="621" y="451" width="43" height="45" style="fill: none;" class="djs-outline"/></g></g><g class="djs-group"><g class="djs-element djs-connection" data-element-id="Association_17pod3n_di" style="display: block;"><g class="djs-visual"><polyline points="817,583 747,615 " style="fill: none; stroke: black; stroke-width: 2px; stroke-dasharray: 0.5, 5; stroke-linecap: round; stroke-linejoin: round;"/></g><polyline points="817,583 747,615 " style="fill: none; stroke-opacity: 0; stroke: white; stroke-width: 15px;" class="djs-hit"/><rect x="741" y="577" width="82" height="44" style="fill: none;" class="djs-outline"/></g></g><g style="pointer-events: none;" class="djs-drag-group" transform="translate(1, -8)"/><g style="pointer-events: none;" class="djs-drag-group" transform="translate(-3, 25)"/><g style="pointer-events: none;" class="djs-drag-group" transform="translate(-1, -17)"/><g style="pointer-events: none;" class="djs-drag-group" transform="translate(298, 101)"/><g style="pointer-events: none;" class="djs-drag-group" transform="translate(6, 75)"/><g style="pointer-events: none;" class="djs-drag-group" transform="translate(-12, -100)"/><g style="pointer-events: none;" class="djs-drag-group" transform="translate(8, 57)"/><g style="pointer-events: none;" class="djs-drag-group" transform="translate(12, 15)"/><g style="pointer-events: none;" class="djs-drag-group" transform="translate(0, -6)"/><g style="pointer-events: none;" class="djs-drag-group" transform="translate(-24, 16)"/><g style="pointer-events: none;" class="djs-drag-group" transform="translate(-59, 36)"/><g style="pointer-events: none;" class="djs-drag-group" transform="translate(0, -33)"/><g style="pointer-events: none;" class="djs-drag-group" transform="translate(0, 31)"/><g style="pointer-events: none;" class="djs-drag-group" transform="translate(74, 22)"/><g style="pointer-events: none;" class="djs-drag-group" transform="translate(-190, 87)"/><g style="pointer-events: none;" class="djs-drag-group" transform="translate(76, -39)"/><g style="pointer-events: none;" class="djs-drag-group" transform="translate(63, -21)"/><g style="pointer-events: none;" class="djs-drag-group" transform="translate(0, -89)"/><g style="pointer-events: none;" class="djs-drag-group" transform="translate(-18, -57)"/><g style="pointer-events: none;" class="djs-drag-group" transform="translate(28, 2)"/><g style="pointer-events: none;" class="djs-drag-group" transform="translate(-113, -4)"/><g style="pointer-events: none;" class="djs-drag-group" transform="translate(98, 5)"/><g style="pointer-events: none;" class="djs-drag-group" transform="translate(5, 28)"/><g style="pointer-events: none;" class="djs-drag-group" transform="translate(0, 83)"/><g style="pointer-events: none;" class="djs-drag-group" transform="translate(31, 23)"/><g style="pointer-events: none;" class="djs-drag-group" transform="translate(14)"/><g style="pointer-events: none;" class="djs-drag-group" transform="translate(-5, -52)"/><g style="pointer-events: none;" class="djs-drag-group" transform="translate(-16, 150)"/><g style="pointer-events: none;" class="djs-drag-group" transform="translate(173, 180)"/><g style="pointer-events: none;" class="djs-drag-group" transform="translate(-41, 18)"/><g style="pointer-events: none;" class="djs-drag-group" transform="translate(-78, -162)"/><g style="pointer-events: none;" class="djs-drag-group" transform="translate(-83, 3)"/><g style="pointer-events: none;" class="djs-drag-group" transform="translate(12, 33)"/><g style="pointer-events: none;" class="djs-drag-group" transform="translate(52, 6)"/><g style="pointer-events: none;" class="djs-drag-group" transform="translate(-5)"/><g style="pointer-events: none;" class="djs-drag-group" transform="translate(-57, -31)"/><g style="pointer-events: none;" class="djs-drag-group" transform="translate(0, -19)"/><g style="pointer-events: none;" class="djs-drag-group" transform="translate(-1, 4)"/><g style="pointer-events: none;" class="djs-drag-group" transform="translate(4, 1)"/><g style="pointer-events: none;" class="djs-drag-group" transform="translate(11, -1)"/><g style="pointer-events: none;" class="djs-drag-group" transform="translate(6)"/><g style="pointer-events: none;" class="djs-drag-group" transform="translate(0, 6)"/><g style="pointer-events: none;" class="djs-drag-group" transform="translate(49)"/><g style="pointer-events: none;" class="djs-drag-group" transform="translate(-33)"/><g style="pointer-events: none;" class="djs-drag-group" transform="translate(-13, 12)"/><g style="pointer-events: none;" class="djs-drag-group" transform="translate(-2, 1)"/><g style="pointer-events: none;" class="djs-drag-group" transform="translate(8)"/><g style="pointer-events: none;" class="djs-drag-group" transform="translate(-33)"/><g style="pointer-events: none;" class="djs-drag-group" transform="translate(5, -16)"/><g style="pointer-events: none;" class="djs-drag-group" transform="translate(-8, -3)"/><g style="pointer-events: none;" class="djs-drag-group" transform="translate(-15, 1)"/><g style="pointer-events: none;" class="djs-drag-group" transform="translate(-16, 1)"/><g style="pointer-events: none;" class="djs-drag-group" transform="translate(-16, -1)"/><g style="pointer-events: none;" class="djs-drag-group" transform="translate(13, 16)"/><g style="pointer-events: none;" class="djs-drag-group" transform="translate(-27, -1)"/><g style="pointer-events: none;" class="djs-drag-group" transform="translate(-17, 2)"/><g style="pointer-events: none;" class="djs-drag-group" transform="translate(-10, -2)"/><g style="pointer-events: none;" class="djs-drag-group" transform="translate(-16)"/><g style="pointer-events: none;" class="djs-drag-group" transform="translate(-26)"/><g style="pointer-events: none;" class="djs-drag-group" transform="translate(-25, 2)"/><g style="pointer-events: none;" class="djs-drag-group" transform="translate(-26, -5)"/><g style="pointer-events: none;" class="djs-drag-group" transform="translate(14)"/><g style="pointer-events: none;" class="djs-drag-group" transform="translate(6)"/><g style="pointer-events: none;" class="djs-drag-group" transform="translate(10)"/><g style="pointer-events: none;" class="djs-drag-group" transform="translate(0, -89)"/><g style="pointer-events: none;" class="djs-drag-group" transform="translate(0, -87)"/><g style="pointer-events: none;" class="djs-drag-group" transform="translate(0, -88)"/><g style="pointer-events: none;" class="djs-drag-group" transform="translate(0, -135)"/><g style="pointer-events: none;" class="djs-drag-group" transform="translate(0, -135)"/><g style="pointer-events: none;" class="djs-drag-group" transform="translate(0, 3)"/><g style="pointer-events: none;" class="djs-drag-group" transform="translate(-5, -157)"/><g style="pointer-events: none;" class="djs-drag-group" transform="translate(0, -116)"/><g style="pointer-events: none;" class="djs-drag-group" transform="translate(7, -5)"/><g style="pointer-events: none;" class="djs-drag-group" transform="translate(0, -36)"/><g style="pointer-events: none;" class="djs-drag-group" transform="translate(0, -36)"/><g style="pointer-events: none;" class="djs-drag-group" transform="translate(-6, -47)"/><g style="pointer-events: none;" class="djs-drag-group" transform="translate(0, 85)"/><g style="pointer-events: none;" class="djs-drag-group" transform="translate(34)"/><g style="pointer-events: none;" class="djs-drag-group" transform="translate(19, -1)"/><g style="pointer-events: none;" class="djs-drag-group" transform="translate(-3, 37)"/><g style="pointer-events: none;" class="djs-drag-group" transform="translate(-3, 40)"/><g style="pointer-events: none;" class="djs-drag-group" transform="translate(1, 40)"/><g style="pointer-events: none;" class="djs-drag-group" transform="translate(12, -3)"/><g style="pointer-events: none;" class="djs-drag-group" transform="translate(-29, 16)"/><g style="pointer-events: none;" class="djs-drag-group" transform="translate(0, -115)"/><g style="pointer-events: none;" class="djs-drag-group" transform="translate(179, 124)"/><g style="pointer-events: none;" class="djs-drag-group" transform="translate(0, -88)"/><g style="pointer-events: none;" class="djs-drag-group" transform="translate(0, 54)"/><g style="pointer-events: none;" class="djs-drag-group" transform="translate(0, 27)"/><g style="pointer-events: none;" class="djs-drag-group" transform="translate(53)"/><g style="pointer-events: none;" class="djs-drag-group" transform="translate(48, -90)"/><g style="pointer-events: none;" class="djs-drag-group" transform="translate(-185, -43)"/><g style="pointer-events: none;" class="djs-drag-group" transform="translate(0, 27)"/><g style="pointer-events: none;" class="djs-drag-group" transform="translate(29, 11)"/><g style="pointer-events: none;" class="djs-drag-group" transform="translate(0, 30)"/><g style="pointer-events: none;" class="djs-drag-group" transform="translate(0, -45)"/><g style="pointer-events: none;" class="djs-drag-group" transform="translate(12, -16)"/><g style="pointer-events: none;" class="djs-drag-group" transform="translate(0, -13)"/><g style="pointer-events: none;" class="djs-drag-group" transform="translate(-56)"/><g style="pointer-events: none;" class="djs-drag-group" transform="translate(-93, -8)"/><g style="pointer-events: none;" class="djs-drag-group" transform="translate(0, 5)"/><g style="pointer-events: none;" class="djs-drag-group" transform="translate(-1, -4)"/><g style="pointer-events: none;" class="djs-drag-group" transform="translate(0, 21)"/><g style="pointer-events: none;" class="djs-drag-group" transform="translate(0, 6)"/><g style="pointer-events: none;" class="djs-drag-group" transform="translate(0, 8)"/><g style="pointer-events: none;" class="djs-drag-group" transform="translate(-11, 2)"/><g style="pointer-events: none;" class="djs-drag-group" transform="translate(-5, -7)"/><g style="pointer-events: none;" class="djs-drag-group" transform="translate(-10)"/><g style="pointer-events: none;" class="djs-drag-group" transform="translate(-11, -4)"/></svg>