<?xml version="1.0" encoding="utf-8"?>
<!-- created with cmmn-js / http://bpmn.io -->
<!DOCTYPE svg PUBLIC "-//W3C//DTD SVG 1.1//EN" "http://www.w3.org/Graphics/SVG/1.1/DTD/svg11.dtd">
<svg xmlns="http://www.w3.org/2000/svg" xmlns:xlink="http://www.w3.org/1999/xlink" width="372" height="251" viewBox="-17 190 372 251" version="1.1"><defs><marker id="association-start" viewBox="0 0 20 20" refX="1" refY="10" markerWidth="10" markerHeight="10" orient="auto"><path d="M 11 5 L 1 10 L 11 15" style="fill: none; stroke-width: 1.5px; stroke-linecap: round; stroke-dasharray: 10000, 1; stroke: black;"></path></marker><marker id="association-end" viewBox="0 0 20 20" refX="12" refY="10" markerWidth="10" markerHeight="10" orient="auto"><path d="M 1 5 L 11 10 L 1 15" style="fill: none; stroke-width: 1.5px; stroke-linecap: round; stroke-dasharray: 10000, 1; stroke: black;"></path></marker></defs><g class="djs-group"><g class="djs-element djs-shape" data-element-id="CasePlanModel_1meb28e" transform="translate(-11, 214)" style="display: block;"><g class="djs-visual"><rect x="0" y="0" width="360" height="221" rx="0" ry="0" style="stroke: black; stroke-width: 2px; fill: white; fill-opacity: 0.95;"/><polygon points="10,0 20,-18 100,-18 110,0" style="fill: white; stroke: black; stroke-width: 2px; fill-opacity: 0.95; pointer-events: all;"/><text style="font-family: Arial,sans-serif; font-size: 12px;" class="djs-label" transform="translate(25, -19)"><tspan x="0" y="13.655462265014648">Typen</tspan></text></g><rect x="0" y="0" width="360" height="221" style="fill: none; stroke-opacity: 0; stroke: white; stroke-width: 15px;" class="djs-hit"/><rect x="-6" y="-24" width="372" height="251" style="fill: none;" class="djs-outline"/></g><g class="djs-children"><g class="djs-group"><g class="djs-element djs-shape" data-element-id="PlanItem_0ebh5ye" transform="translate(18, 235)" style="display: block;"><g class="djs-visual"><rect x="0" y="0" width="100" height="80" rx="10" ry="10" style="stroke: black; stroke-width: 2px; fill: white;"/><text style="font-family: Arial,sans-serif; font-size: 12px;" class="djs-label"><tspan x="10" y="36.73076915740967">Benutzeraufga</tspan><tspan x="43.07692289352417" y="49.807692527770996">be </tspan></text><path d="m 15,12 c 0.909,-0.845 1.594,-2.049 1.594,-3.385 0,-2.554 -1.805,-4.62199999 -4.357,-4.62199999 -2.55199998,0 -4.28799998,2.06799999 -4.28799998,4.62199999 0,1.348 0.974,2.562 1.89599998,3.405 -0.52899998,0.187 -5.669,2.097 -5.794,4.7560005 v 6.718 h 17 v -6.718 c 0,-2.2980005 -5.5279996,-4.5950005 -6.0509996,-4.7760005 zm -8,6 l 0,5.5 m 11,0 l 0,-5" style="fill: none; stroke-width: 0.5px; stroke: black;"/><path d="m 15,12 m 2.162,1.009 c 0,2.4470005 -2.158,4.4310005 -4.821,4.4310005 -2.66499998,0 -4.822,-1.981 -4.822,-4.4310005" style="fill: none; stroke-width: 0.5px; stroke: black;"/><path d="m 15,12 m -6.9,-3.80 c 0,0 2.25099998,-2.358 4.27399998,-1.177 2.024,1.181 4.221,1.537 4.124,0.965 -0.098,-0.57 -0.117,-3.79099999 -4.191,-4.13599999 -3.57499998,0.001 -4.20799998,3.36699999 -4.20699998,4.34799999 z" style="fill: black; stroke-width: 0.5px; stroke: black;"/></g><rect x="0" y="0" width="100" height="80" style="fill: none; stroke-opacity: 0; stroke: white; stroke-width: 15px;" class="djs-hit"/><rect x="-6" y="-6" width="112" height="92" style="fill: none;" class="djs-outline"/></g></g><g class="djs-group"><g class="djs-element djs-shape" data-element-id="PlanItem_0p1efdl" transform="translate(150, 235)" style="display: block;"><g class="djs-visual"><rect x="0" y="0" width="100" height="80" rx="10" ry="10" style="stroke: black; stroke-width: 2px; fill: white;"/><text style="font-family: Arial,sans-serif; font-size: 12px;" class="djs-label"><tspan x="5.384613037109375" y="43.26923084259033">Prozessaufgabe</tspan></text><path d="m 5,5 l15,0 l6,6 l-6,6 l-15,0 l6,-6 l-6,-6" style="fill: white; stroke-width: 1.25px; stroke: black;"/></g><rect x="0" y="0" width="100" height="80" style="fill: none; stroke-opacity: 0; stroke: white; stroke-width: 15px;" class="djs-hit"/><rect x="-6" y="-6" width="112" height="92" style="fill: none;" class="djs-outline"/></g></g><g class="djs-group"><g class="djs-element djs-shape" data-element-id="PlanItem_1iuxeop" transform="translate(18, 335)" style="display: block;"><g class="djs-visual"><rect x="0" y="0" width="100" height="80" rx="10" ry="10" style="stroke: black; stroke-width: 2px; fill: white;"/><text style="font-family: Arial,sans-serif; font-size: 12px;" class="djs-label"><tspan x="17.307689666748047" y="43.26923084259033">Fallaufgabe</tspan></text><path d="m 7,7 l18,0 l0,12 l-18,0 l0,-12 m 2,0 l3,-4 l5,0 l3,4" style="fill: white; stroke-width: 1.25px; stroke: black;"/></g><rect x="0" y="0" width="100" height="80" style="fill: none; stroke-opacity: 0; stroke: white; stroke-width: 15px;" class="djs-hit"/><rect x="-6" y="-6" width="112" height="92" style="fill: none;" class="djs-outline"/></g></g><g class="djs-group"><g class="djs-element djs-shape" data-element-id="PlanItem_1tn5xoh" transform="translate(150, 335)" style="display: block;"><g class="djs-visual"><rect x="0" y="0" width="100" height="80" rx="10" ry="10" style="stroke: black; stroke-width: 2px; fill: white;"/><text style="font-family: Arial,sans-serif; font-size: 12px;" class="djs-label"><tspan x="7.307689666748047" y="36.73076915740967">Entscheidungs-</tspan><tspan x="27.692306518554688" y="49.807692527770996">aufgabe </tspan></text><path d="m 8,8 0,4 20,0 0,-4 z" style="stroke-width: 1px; stroke: black;"/><path d="m 8,8 0,12 20,0 0,-12 zm 0,8 l 20,0 m -13,-4 l 0,8" style="fill: none; stroke-width: 1px; stroke: black;"/></g><rect x="0" y="0" width="100" height="80" style="fill: none; stroke-opacity: 0; stroke: white; stroke-width: 15px;" class="djs-hit"/><rect x="-6" y="-6" width="112" height="92" style="fill: none;" class="djs-outline"/></g></g><g class="djs-group"><g class="djs-element djs-shape" data-element-id="PlanItem_0qs9vpp" transform="translate(283, 257)" style="display: block;"><g class="djs-visual"><circle cx="18" cy="18" r="18" style="stroke: black; stroke-width: 2px; fill: white;"/><circle cx="18" cy="18" r="14" style="stroke: black; stroke-width: 2px; fill: white;"/><path d="m 20,15 c 0.909,-0.845 1.594,-2.049 1.594,-3.385 0,-2.554 -1.805,-4.62199999 -4.357,-4.62199999 -2.55199998,0 -4.28799998,2.06799999 -4.28799998,4.62199999 0,1.348 0.974,2.562 1.89599998,3.405 -0.52899998,0.187 -5.669,2.097 -5.794,4.7560005 v 6.718 h 17 v -6.718 c 0,-2.2980005 -5.5279996,-4.5950005 -6.0509996,-4.7760005 zm -8,6 l 0,5.5 m 11,0 l 0,-5" style="fill: none; stroke-width: 0.5px; stroke: black;"/><path d="m 20,15 m 2.162,1.009 c 0,2.4470005 -2.158,4.4310005 -4.821,4.4310005 -2.66499998,0 -4.822,-1.981 -4.822,-4.4310005" style="fill: none; stroke-width: 0.5px; stroke: black;"/><path d="m 20,15 m -6.9,-3.80 c 0,0 2.25099998,-2.358 4.27399998,-1.177 2.024,1.181 4.221,1.537 4.124,0.965 -0.098,-0.57 -0.117,-3.79099999 -4.191,-4.13599999 -3.57499998,0.001 -4.20799998,3.36699999 -4.20699998,4.34799999 z" style="fill: black; stroke-width: 0.5px; stroke: black;"/></g><rect x="0" y="0" width="36" height="36" style="fill: none; stroke-opacity: 0; stroke: white; stroke-width: 15px;" class="djs-hit"/><rect x="-6" y="-6" width="48" height="48" style="fill: none;" class="djs-outline"/></g></g><g class="djs-group"><g class="djs-element djs-shape" data-element-id="PlanItem_1q0a3j9_label" transform="translate(258, 293)" style="display: block;"><g class="djs-visual"><text style="font-family: Arial,sans-serif; font-size: 11px;" class="djs-label" transform="translate(-2.2128829956054688,0)"><tspan x="2.2128829956054688" y="12.289916038513184">Prozessbeteiligter</tspan></text></g><rect x="0" y="0" width="86" height="13" style="fill: none; stroke-opacity: 0; stroke: white; stroke-width: 15px;" class="djs-hit"/><rect x="-6" y="-6" width="98" height="25" style="fill: none;" class="djs-outline"/></g></g><g class="djs-group"><g class="djs-element djs-shape" data-element-id="PlanItem_06340un" transform="translate(283, 357)" style="display: block;"><g class="djs-visual"><circle cx="18" cy="18" r="18" style="stroke: black; stroke-width: 2px; fill: white;"/><circle cx="18" cy="18" r="14" style="stroke: black; stroke-width: 2px; fill: white;"/><path d="M 18,18 l 2.25,-7.5 m -2.25,7.5 l 5.25,1.5 " style="fill: none; stroke-width: 2px; stroke: black; stroke-linecap: square;"/><path d="M 18,18 m 0,7.5 l -0,2.25 " style="fill: none; stroke-width: 1px; stroke: black; stroke-linecap: square;" transform="rotate(0,18,18)"/><path d="M 18,18 m 0,7.5 l -0,2.25 " style="fill: none; stroke-width: 1px; stroke: black; stroke-linecap: square;" transform="rotate(30,18,18)"/><path d="M 18,18 m 0,7.5 l -0,2.25 " style="fill: none; stroke-width: 1px; stroke: black; stroke-linecap: square;" transform="rotate(60,18,18)"/><path d="M 18,18 m 0,7.5 l -0,2.25 " style="fill: none; stroke-width: 1px; stroke: black; stroke-linecap: square;" transform="rotate(90,18,18)"/><path d="M 18,18 m 0,7.5 l -0,2.25 " style="fill: none; stroke-width: 1px; stroke: black; stroke-linecap: square;" transform="rotate(120,18,18)"/><path d="M 18,18 m 0,7.5 l -0,2.25 " style="fill: none; stroke-width: 1px; stroke: black; stroke-linecap: square;" transform="rotate(150,18,18)"/><path d="M 18,18 m 0,7.5 l -0,2.25 " style="fill: none; stroke-width: 1px; stroke: black; stroke-linecap: square;" transform="rotate(180,18,18)"/><path d="M 18,18 m 0,7.5 l -0,2.25 " style="fill: none; stroke-width: 1px; stroke: black; stroke-linecap: square;" transform="rotate(210,18,18)"/><path d="M 18,18 m 0,7.5 l -0,2.25 " style="fill: none; stroke-width: 1px; stroke: black; stroke-linecap: square;" transform="rotate(240,18,18)"/><path d="M 18,18 m 0,7.5 l -0,2.25 " style="fill: none; stroke-width: 1px; stroke: black; stroke-linecap: square;" transform="rotate(270,18,18)"/><path d="M 18,18 m 0,7.5 l -0,2.25 " style="fill: none; stroke-width: 1px; stroke: black; stroke-linecap: square;" transform="rotate(300,18,18)"/><path d="M 18,18 m 0,7.5 l -0,2.25 " style="fill: none; stroke-width: 1px; stroke: black; stroke-linecap: square;" transform="rotate(330,18,18)"/></g><rect x="0" y="0" width="36" height="36" style="fill: none; stroke-opacity: 0; stroke: white; stroke-width: 15px;" class="djs-hit"/><rect x="-6" y="-6" width="48" height="48" style="fill: none;" class="djs-outline"/></g></g><g class="djs-group"><g class="djs-element djs-shape" data-element-id="PlanItem_01yae0r_label" transform="translate(291, 393)" style="display: block;"><g class="djs-visual"><text style="font-family: Arial,sans-serif; font-size: 11px;" class="djs-label" transform="translate(-35.896358489990234,0)"><tspan x="35.896358489990234" y="12.289916038513184">Zeit</tspan></text></g><rect x="0" y="0" width="19" height="13" style="fill: none; stroke-opacity: 0; stroke: white; stroke-width: 15px;" class="djs-hit"/><rect x="-6" y="-6" width="31" height="25" style="fill: none;" class="djs-outline"/></g></g></g></g><g style="pointer-events: none;" class="djs-drag-group" transform="translate(87)"/><g style="pointer-events: none;" class="djs-drag-group" transform="translate(3, -8)"/><g style="pointer-events: none;" class="djs-drag-group" transform="translate(-40)"/><g style="pointer-events: none;" class="djs-drag-group" transform="translate(-33, -1)"/><g style="pointer-events: none;" class="djs-drag-group" transform="translate(-35)"/><g style="pointer-events: none;" class="djs-drag-group" transform="translate(-9)"/><g style="pointer-events: none;" class="djs-drag-group" transform="translate(-78, -2)"/><g style="pointer-events: none;" class="djs-drag-group" transform="translate(-11, 3)"/><g style="pointer-events: none;" class="djs-drag-group" transform="translate(-75, -7)"/><g style="pointer-events: none;" class="djs-drag-group" transform="translate(1, 53)"/><g style="pointer-events: none;" class="djs-drag-group" transform="translate(0, -9)"/><g style="pointer-events: none;" class="djs-drag-group" transform="translate(0, 6)"/><g style="pointer-events: none;" class="djs-drag-group" transform="translate(0, -9)"/><g style="pointer-events: none;" class="djs-drag-group" transform="translate(0)"/><g style="pointer-events: none;" class="djs-drag-group" transform="translate(-3, -9)"/><g style="pointer-events: none;" class="djs-drag-group" transform="translate(0, 3)"/><g style="pointer-events: none;" class="djs-drag-group" transform="translate(12, 23)"/><g style="pointer-events: none;" class="djs-drag-group" transform="translate(-111, 28)"/><g style="pointer-events: none;" class="djs-drag-group" transform="translate(25)"/><g style="pointer-events: none;" class="djs-drag-group" transform="translate(0, -1)"/><g style="pointer-events: none;" class="djs-drag-group" transform="translate(3, 51)"/><g style="pointer-events: none;" class="djs-drag-group" transform="translate(-9, 5)"/><g style="pointer-events: none;" class="djs-drag-group" transform="translate(11, -9)"/><g style="pointer-events: none;" class="djs-drag-group" transform="translate(14, 4)"/><g style="pointer-events: none;" class="djs-drag-group" transform="translate(-10, 8)"/><g style="pointer-events: none;" class="djs-drag-group" transform="translate(-21)"/><g style="pointer-events: none;" class="djs-drag-group" transform="translate(-186, 178)"/><g style="pointer-events: none;" class="djs-drag-group" transform="translate(619, -122)"/><g style="pointer-events: none;" class="djs-drag-group" transform="translate(-324, 216)"/><g style="pointer-events: none;" class="djs-drag-group" transform="translate(49, 2)"/><g style="pointer-events: none;" class="djs-drag-group" transform="translate(0, 5)"/><g style="pointer-events: none;" class="djs-drag-group" transform="translate(-92, 27)"/><g style="pointer-events: none;" class="djs-drag-group" transform="translate(-36)"/><g style="pointer-events: none;" class="djs-drag-group" transform="translate(-17)"/><g style="pointer-events: none;" class="djs-drag-group" transform="translate(-5)"/><g style="pointer-events: none;" class="djs-drag-group" transform="translate(-335, 147)"/><g style="pointer-events: none;" class="djs-drag-group" transform="translate(-297, 228)"/><g style="pointer-events: none;" class="djs-drag-group" transform="translate(95, -47)"/><g style="pointer-events: none;" class="djs-drag-group" transform="translate(19, -3)"/><g style="pointer-events: none;" class="djs-drag-group" transform="translate(0, 4)"/><g style="pointer-events: none;" class="djs-drag-group" transform="translate(-45, 1)"/><g style="pointer-events: none;" class="djs-drag-group" transform="translate(-1)"/><g style="pointer-events: none;" class="djs-drag-group" transform="translate(-10, 3)"/><g style="pointer-events: none;" class="djs-drag-group" transform="translate(-9, -7)"/><g style="pointer-events: none;" class="djs-drag-group" transform="translate(-10, -4)"/><g style="pointer-events: none;" class="djs-drag-group" transform="translate(20, -2)"/><g style="pointer-events: none;" class="djs-drag-group" transform="translate(21, 2)"/><g style="pointer-events: none;" class="djs-drag-group" transform="translate(14, -2)"/><g style="pointer-events: none;" class="djs-drag-group" transform="translate(2, 1)"/><g style="pointer-events: none;" class="djs-drag-group" transform="translate(20, -3)"/><g style="pointer-events: none;" class="djs-drag-group" transform="translate(28, -1)"/><g style="pointer-events: none;" class="djs-drag-group" transform="translate(16, 1)"/><g style="pointer-events: none;" class="djs-drag-group" transform="translate(1, -43)"/><g style="pointer-events: none;" class="djs-drag-group" transform="translate(1, 13)"/><g style="pointer-events: none;" class="djs-drag-group" transform="translate(11, 71)"/><g style="pointer-events: none;" class="djs-drag-group" transform="translate(15, 7)"/><g style="pointer-events: none;" class="djs-drag-group" transform="translate(13, -12)"/><g style="pointer-events: none;" class="djs-drag-group" transform="translate(7, -3)"/><g style="pointer-events: none;" class="djs-drag-group" transform="translate(0, 8)"/><g style="pointer-events: none;" class="djs-drag-group" transform="translate(0, -4)"/><g style="pointer-events: none;" class="djs-drag-group" transform="translate(-2)"/><g style="pointer-events: none;" class="djs-drag-group" transform="translate(2, -5)"/><g style="pointer-events: none;" class="djs-drag-group" transform="translate(2, -8)"/><g style="pointer-events: none;" class="djs-drag-group" transform="translate(8, -6)"/><g style="pointer-events: none;" class="djs-drag-group" transform="translate(48, -17)"/><g style="pointer-events: none;" class="djs-drag-group" transform="translate(0, 17)"/><g style="pointer-events: none;" class="djs-drag-group" transform="translate(14, 38)"/><g style="pointer-events: none;" class="djs-drag-group" transform="translate(28, -12)"/><g style="pointer-events: none;" class="djs-drag-group" transform="translate(-20, 6)"/><g style="pointer-events: none;" class="djs-drag-group" transform="translate(-23, -30)"/><g style="pointer-events: none;" class="djs-drag-group" transform="translate(7, 10)"/><g style="pointer-events: none;" class="djs-drag-group" transform="translate(-3, 65)"/><g style="pointer-events: none;" class="djs-drag-group" transform="translate(30, -10)"/><g style="pointer-events: none;" class="djs-drag-group" transform="translate(-18, 10)"/><g style="pointer-events: none;" class="djs-drag-group" transform="translate(-9, -7)"/><g style="pointer-events: none;" class="djs-drag-group" transform="translate(-2, -8)"/><g style="pointer-events: none;" class="djs-drag-group" transform="translate(0, 43)"/><g style="pointer-events: none;" class="djs-drag-group" transform="translate(0, 33)"/><g style="pointer-events: none;" class="djs-drag-group" transform="translate(9, -25)"/><g style="pointer-events: none;" class="djs-drag-group" transform="translate(-10, 40)"/><g style="pointer-events: none;" class="djs-drag-group" transform="translate(6, -33)"/><g style="pointer-events: none;" class="djs-drag-group" transform="translate(-1, 1)"/><g style="pointer-events: none;" class="djs-drag-group" transform="translate(-3, 25)"/><g style="pointer-events: none;" class="djs-drag-group" transform="translate(-4)"/><g style="pointer-events: none;" class="djs-drag-group" transform="translate(4)"/><g style="pointer-events: none;" class="djs-drag-group" transform="translate(0)"/></svg>