<?xml version="1.0" encoding="utf-8"?>
<!-- created with cmmn-js / http://bpmn.io -->
<!DOCTYPE svg PUBLIC "-//W3C//DTD SVG 1.1//EN" "http://www.w3.org/Graphics/SVG/1.1/DTD/svg11.dtd">
<svg xmlns="http://www.w3.org/2000/svg" xmlns:xlink="http://www.w3.org/1999/xlink" width="325" height="190" viewBox="141 60 325 190" version="1.1"><defs><marker id="association-start" viewBox="0 0 20 20" refX="1" refY="10" markerWidth="10" markerHeight="10" orient="auto"><path d="M 11 5 L 1 10 L 11 15" style="fill: none; stroke-width: 1.5px; stroke-linecap: round; stroke-dasharray: 10000, 1; stroke: black;"></path></marker><marker id="association-end" viewBox="0 0 20 20" refX="12" refY="10" markerWidth="10" markerHeight="10" orient="auto"><path d="M 1 5 L 11 10 L 1 15" style="fill: none; stroke-width: 1.5px; stroke-linecap: round; stroke-dasharray: 10000, 1; stroke: black;"></path></marker></defs><g class="djs-group"><g class="djs-element djs-shape" data-element-id="CasePlanModel_00jvcvg" transform="translate(147, 84)" style="display: block;"><g class="djs-visual"><rect x="0" y="0" width="313" height="160" rx="0" ry="0" style="stroke: black; stroke-width: 2px; fill: white; fill-opacity: 0.95;"/><polygon points="10,0 20,-18 121.38385772705078,-18 131.38385772705078,0" style="fill: white; stroke: black; stroke-width: 2px; fill-opacity: 0.95; pointer-events: all;"/><text style="font-family: Arial,sans-serif; font-size: 12px;" class="djs-label" transform="translate(25, -19)"><tspan x="0" y="13.56397533416748">Supportanfrage</tspan></text></g><rect x="0" y="0" width="313" height="160" style="fill: none; stroke-opacity: 0; stroke: white; stroke-width: 15px;" class="djs-hit"/><rect x="-6" y="-24" width="325" height="190" style="fill: none;" class="djs-outline"/></g><g class="djs-children"><g class="djs-group"><g class="djs-element djs-shape" data-element-id="PlanItem_03bw0zk" transform="translate(172, 144)" style="display: block;"><g class="djs-visual"><rect x="0" y="0" width="100" height="80" rx="10" ry="10" style="stroke: black; stroke-width: 2px; fill: white;"/><text style="font-family: Arial,sans-serif; font-size: 12px;" class="djs-label"><tspan x="30.724876403808594" y="36.60900616645813">Lösung </tspan><tspan x="18.945634841918945" y="50.17298150062561">ausarbeiten </tspan></text><path d="m 15,12 c 0.909,-0.845 1.594,-2.049 1.594,-3.385 0,-2.554 -1.805,-4.62199999 -4.357,-4.62199999 -2.55199998,0 -4.28799998,2.06799999 -4.28799998,4.62199999 0,1.348 0.974,2.562 1.89599998,3.405 -0.52899998,0.187 -5.669,2.097 -5.794,4.7560005 v 6.718 h 17 v -6.718 c 0,-2.2980005 -5.5279996,-4.5950005 -6.0509996,-4.7760005 zm -8,6 l 0,5.5 m 11,0 l 0,-5" style="fill: none; stroke-width: 0.5px; stroke: black;"/><path d="m 15,12 m 2.162,1.009 c 0,2.4470005 -2.158,4.4310005 -4.821,4.4310005 -2.66499998,0 -4.822,-1.981 -4.822,-4.4310005" style="fill: none; stroke-width: 0.5px; stroke: black;"/><path d="m 15,12 m -6.9,-3.80 c 0,0 2.25099998,-2.358 4.27399998,-1.177 2.024,1.181 4.221,1.537 4.124,0.965 -0.098,-0.57 -0.117,-3.79099999 -4.191,-4.13599999 -3.57499998,0.001 -4.20799998,3.36699999 -4.20699998,4.34799999 z" style="fill: black; stroke-width: 0.5px; stroke: black;"/></g><rect x="0" y="0" width="100" height="80" style="fill: none; stroke-opacity: 0; stroke: white; stroke-width: 15px;" class="djs-hit"/><rect x="-6" y="-6" width="112" height="92" style="fill: none;" class="djs-outline"/></g></g><g class="djs-group"><g class="djs-element djs-shape" data-element-id="PlanItem_14s7wub" transform="translate(345, 143)" style="display: block;"><g class="djs-visual"><rect x="0" y="0" width="100" height="80" rx="10" ry="10" style="stroke: black; stroke-width: 2px; fill: white;"/><text style="font-family: Arial,sans-serif; font-size: 12px;" class="djs-label"><tspan x="5.738605499267578" y="36.60900616645813">Feature Request</tspan><tspan x="29.297088623046875" y="50.17298150062561">anlegen </tspan></text><path d="m43, 63 l 14,7 l -14,7 l 0,-14 z" style="fill: none; stroke-width: 1px; stroke: black;"/><path d="m 5,5 l15,0 l6,6 l-6,6 l-15,0 l6,-6 l-6,-6" style="fill: white; stroke-width: 1.25px; stroke: black;"/></g><rect x="0" y="0" width="100" height="80" style="fill: none; stroke-opacity: 0; stroke: white; stroke-width: 15px;" class="djs-hit"/><rect x="-6" y="-6" width="112" height="92" style="fill: none;" class="djs-outline"/></g></g><g class="djs-group"><g class="djs-element djs-shape" data-element-id="TextAnnotation_1yp40zg" transform="translate(276, 104)" style="display: block;"><g class="djs-visual"><rect x="0" y="0" width="85" height="30" rx="0" ry="0" style="stroke: none; stroke-width: 2px; fill: none;"/><path d="m 0, 0 m 10,0 l -10,0 l 0,30 l 10,0" style="fill: none; stroke-width: 2px; stroke: black;"/><text style="font-family: Arial,sans-serif; font-size: 12px;" class="djs-label"><tspan x="5" y="11.60900616645813">Nur A-Kunden</tspan><tspan x="5" y="25.17298150062561"/></text></g><rect x="0" y="0" width="85" height="30" style="fill: none; stroke-opacity: 0; stroke: white; stroke-width: 15px;" class="djs-hit"/><rect x="-6" y="-6" width="97" height="42" style="fill: none;" class="djs-outline"/></g></g><g class="djs-group"><g class="djs-element djs-shape" data-element-id="EntryCriterion_0gjwivp" transform="translate(335, 173.477)" style="display: block;"><g class="djs-visual"><polygon points="10,0 20,14 10,28 0,14" style="stroke: black; stroke-width: 2px; fill: white;"/></g><rect x="0" y="0" width="20" height="28" style="fill: none; stroke-opacity: 0; stroke: white; stroke-width: 15px;" class="djs-hit"/><rect x="-6" y="-6" width="32" height="40" style="fill: none;" class="djs-outline"/></g></g></g></g><g class="djs-group"><g class="djs-element djs-connection" data-element-id="Association_1kzej7i_di" style="display: block;"><g class="djs-visual"><polyline points="335,187 318,187 318,134 " style="fill: none; stroke: black; stroke-width: 2px; stroke-dasharray: 0.5, 5; stroke-linecap: round; stroke-linejoin: round;"/></g><polyline points="335,187 318,187 318,134 " style="fill: none; stroke-opacity: 0; stroke: white; stroke-width: 15px;" class="djs-hit"/><rect x="312" y="128" width="29" height="65" style="fill: none;" class="djs-outline"/></g></g><g style="pointer-events: none;" class="djs-drag-group" transform="translate(1, -8)"/><g style="pointer-events: none;" class="djs-drag-group" transform="translate(-3, 25)"/><g style="pointer-events: none;" class="djs-drag-group" transform="translate(-1, -17)"/><g style="pointer-events: none;" class="djs-drag-group" transform="translate(298, 101)"/><g style="pointer-events: none;" class="djs-drag-group" transform="translate(6, 75)"/><g style="pointer-events: none;" class="djs-drag-group" transform="translate(-12, -100)"/><g style="pointer-events: none;" class="djs-drag-group" transform="translate(8, 57)"/><g style="pointer-events: none;" class="djs-drag-group" transform="translate(12, 15)"/><g style="pointer-events: none;" class="djs-drag-group" transform="translate(0, -6)"/><g style="pointer-events: none;" class="djs-drag-group" transform="translate(-24, 16)"/><g style="pointer-events: none;" class="djs-drag-group" transform="translate(-59, 36)"/><g style="pointer-events: none;" class="djs-drag-group" transform="translate(0, -33)"/><g style="pointer-events: none;" class="djs-drag-group" transform="translate(0, 31)"/><g style="pointer-events: none;" class="djs-drag-group" transform="translate(74, 22)"/><g style="pointer-events: none;" class="djs-drag-group" transform="translate(-190, 87)"/><g style="pointer-events: none;" class="djs-drag-group" transform="translate(76, -39)"/><g style="pointer-events: none;" class="djs-drag-group" transform="translate(63, -21)"/><g style="pointer-events: none;" class="djs-drag-group" transform="translate(0, -89)"/><g style="pointer-events: none;" class="djs-drag-group" transform="translate(-18, -57)"/><g style="pointer-events: none;" class="djs-drag-group" transform="translate(28, 2)"/><g style="pointer-events: none;" class="djs-drag-group" transform="translate(-113, -4)"/><g style="pointer-events: none;" class="djs-drag-group" transform="translate(98, 5)"/><g style="pointer-events: none;" class="djs-drag-group" transform="translate(5, 28)"/><g style="pointer-events: none;" class="djs-drag-group" transform="translate(0, 83)"/><g style="pointer-events: none;" class="djs-drag-group" transform="translate(31, 23)"/><g style="pointer-events: none;" class="djs-drag-group" transform="translate(14)"/><g style="pointer-events: none;" class="djs-drag-group" transform="translate(-5, -52)"/></svg>